<?xml version="1.0" standalone="no"?>
<!DOCTYPE svg PUBLIC "-//W3C//DTD SVG 20010904//EN"
 "http://www.w3.org/TR/2001/REC-SVG-20010904/DTD/svg10.dtd">
<svg version="1.0" xmlns="http://www.w3.org/2000/svg"
 width="250.000000pt" height="250.000000pt" viewBox="0 0 250.000000 250.000000"
 preserveAspectRatio="xMidYMid meet">

<g transform="translate(0.000000,250.000000) scale(0.100000,-0.100000)"
fill="#000000" stroke="none">
<path d="M1284 2383 c2 -15 7 -27 12 -25 13 3 10 45 -3 49 -8 3 -11 -6 -9 -24z"/>
<path d="M1266 2306 c-17 -23 -26 -47 -26 -70 l0 -36 64 0 64 0 -6 42 c-3 24
-10 48 -16 55 -6 7 -17 19 -24 28 -19 22 -27 19 -56 -19z"/>
<path d="M1237 2168 c-9 -35 -11 -214 -2 -228 4 -6 13 -9 21 -6 8 3 14 1 14
-4 0 -5 8 -11 18 -14 9 -3 -5 -3 -33 0 -27 3 -52 10 -55 15 -3 4 -11 -1 -18
-11 -9 -14 -9 -20 -1 -20 8 0 8 -4 0 -13 -8 -10 -7 -17 2 -26 9 -10 8 -11 -8
-5 -11 4 -25 11 -31 16 -6 4 -20 5 -29 1 -15 -5 -17 -3 -12 11 4 10 7 20 7 22
0 3 5 2 12 -2 7 -4 8 -3 4 4 -5 8 -15 8 -32 2 -14 -6 -31 -7 -37 -4 -8 5 -8 2
1 -7 17 -18 15 -29 -4 -29 -13 0 -14 -3 -5 -14 8 -10 9 -16 1 -21 -5 -3 -13 0
-16 8 -3 9 -13 13 -25 10 -11 -3 -19 0 -19 6 0 8 -25 12 -82 10 -126 -2 -134
-5 -133 -43 1 -17 4 -37 9 -44 5 -8 -1 -12 -20 -12 -20 0 -25 3 -17 11 17 17
4 47 -23 53 -21 6 -23 9 -14 29 l11 22 -19 -22 c-13 -15 -27 -21 -43 -18 -33
6 -42 20 -24 35 17 14 20 40 5 40 -5 0 -6 -7 -3 -17 4 -10 2 -14 -5 -10 -14
10 -62 -52 -54 -71 3 -10 1 -13 -6 -9 -26 17 -115 -163 -140 -283 -13 -65 -14
-84 -4 -87 6 -3 12 -9 12 -14 0 -4 -6 -6 -14 -3 -23 9 -20 -147 4 -256 38
-168 159 -379 241 -418 16 -8 29 -22 29 -31 0 -14 2 -14 10 -1 7 10 10 11 11
3 1 -7 3 -17 4 -23 1 -5 3 -13 4 -16 0 -4 8 -1 16 6 13 10 15 9 15 -8 0 -15 5
-20 15 -16 8 4 15 2 15 -4 0 -5 14 -15 30 -22 17 -7 34 -18 38 -24 13 -21 76
-50 80 -38 2 7 8 12 14 12 6 0 7 -7 4 -16 -5 -14 -1 -16 23 -11 23 5 29 3 25
-7 -8 -22 43 -29 69 -10 l22 16 -25 -7 c-14 -4 -22 -4 -18 0 4 4 22 9 40 11
24 3 29 1 18 -6 -8 -5 -10 -10 -5 -10 6 0 3 -5 -5 -11 -12 -8 -10 -9 8 -4 16
5 22 3 20 -7 -2 -8 9 -14 30 -16 18 -2 32 1 32 7 0 6 5 11 11 11 5 0 7 -4 4
-10 -4 -6 23 -10 74 -10 44 0 83 5 86 10 3 6 23 10 44 10 52 0 132 25 222 70
77 39 198 127 199 145 0 6 -13 16 -29 23 -17 7 -32 18 -34 25 -2 7 -2 2 0 -11
3 -18 0 -23 -14 -20 -10 2 -17 10 -15 16 3 14 -36 7 -77 -14 -14 -8 -34 -14
-43 -14 -9 0 -19 -4 -23 -10 -3 -5 -12 -7 -20 -3 -8 3 -15 0 -15 -6 0 -6 -8
-11 -17 -11 -15 0 -15 2 2 13 11 7 40 19 65 27 85 27 132 51 126 66 -3 8 0 14
7 14 8 0 7 4 -3 10 -12 7 -12 12 0 35 10 19 16 23 20 12 8 -23 54 -73 73 -80
10 -4 16 -11 13 -16 -3 -5 0 -11 8 -14 14 -6 37 16 69 63 41 61 67 100 67 102
0 2 -38 3 -84 3 -46 0 -79 -4 -73 -8 7 -4 0 -5 -15 -1 -24 5 -28 3 -29 -17 -1
-13 -1 -27 0 -31 0 -5 -4 -8 -9 -8 -6 0 -10 9 -10 20 0 18 -3 19 -22 9 -13 -7
-26 -17 -30 -23 -5 -6 -8 -2 -8 11 0 15 9 24 30 32 17 5 35 20 40 33 6 13 17
34 25 47 19 34 9 44 -32 36 -21 -4 -33 -2 -29 3 3 5 -10 6 -33 2 -22 -4 -46
-3 -54 2 -14 7 -14 4 -5 -24 6 -18 12 -47 15 -64 5 -29 3 -31 -52 -46 -38 -10
-55 -12 -52 -4 2 6 9 12 15 12 7 1 13 2 15 4 1 1 10 3 20 5 35 7 47 14 47 30
0 15 -8 18 -45 16 -17 -1 -16 1 5 11 19 8 21 12 9 15 -9 2 -69 -12 -133 -32
-96 -29 -127 -34 -169 -29 -29 4 -56 9 -61 11 -4 3 -5 -4 -1 -16 4 -13 1 -28
-5 -36 -13 -15 -30 -11 -30 6 0 6 5 7 11 3 8 -5 10 1 6 18 -8 32 4 38 86 38
34 0 112 13 172 29 91 23 112 32 122 52 9 17 9 25 1 30 -6 4 -8 14 -5 22 4 11
22 14 75 13 60 -1 74 -5 96 -25 30 -28 27 -29 55 28 26 56 26 68 0 76 -11 4
-18 13 -15 20 2 7 -2 16 -10 19 -22 9 -24 8 -18 -8 3 -8 1 -17 -5 -21 -15 -9
-26 22 -13 38 11 14 -2 57 -18 57 -12 0 -32 48 -27 63 1 5 9 4 17 -4 37 -35
111 -41 119 -9 15 57 13 69 -20 100 l-34 32 39 -16 c21 -9 42 -14 46 -11 5 3
15 2 24 -1 19 -7 21 -40 4 -48 -9 -4 -8 -5 2 -4 20 2 66 -18 75 -31 10 -17
-31 -13 -45 4 -7 8 -22 15 -34 15 -15 0 -17 -3 -7 -9 8 -5 11 -16 6 -30 -9
-29 14 -36 62 -20 21 7 50 12 66 10 34 -3 35 12 1 28 -15 6 -24 14 -21 18 4 3
13 0 22 -7 9 -7 18 -10 22 -7 11 11 -22 142 -35 140 -7 -2 -12 4 -12 13 0 8 5
12 10 9 6 -3 10 -1 10 4 0 6 -20 11 -45 11 -42 0 -54 -7 -38 -23 3 -4 12 -2
19 4 7 6 18 8 24 4 18 -11 11 -25 -15 -25 -14 0 -25 -4 -25 -10 0 -5 -7 -10
-16 -10 -8 0 -12 4 -9 10 8 12 -56 52 -73 45 -7 -3 -10 0 -7 5 3 6 -1 10 -10
10 -20 0 -43 21 -38 35 4 13 -48 44 -64 38 -10 -4 -29 33 -25 49 1 4 -5 5 -13
2 -9 -4 -15 0 -15 9 0 8 -10 18 -22 22 l-23 8 24 4 c18 4 22 10 18 29 -3 18 0
24 13 24 13 0 17 -6 13 -20 -3 -11 -1 -20 5 -20 5 0 10 12 10 26 0 24 -3 26
-34 21 -49 -8 -85 -52 -62 -75 7 -7 -8 -14 -48 -23 -79 -17 -144 -18 -144 -3
0 20 20 27 37 12 13 -10 17 -10 20 0 3 6 20 12 38 12 19 0 37 5 40 10 3 6 -1
10 -9 10 -9 0 -17 6 -17 13 -3 29 4 53 17 60 22 13 16 30 -9 24 -12 -4 -29 -2
-37 3 -11 7 -5 10 22 10 20 0 40 -5 44 -11 3 -6 17 -9 30 -6 14 2 25 -1 28
-10 5 -11 10 -11 32 3 21 14 30 15 46 5 10 -6 29 -9 40 -5 11 3 50 6 85 6 61
0 63 1 48 18 -12 13 -33 18 -82 19 -37 1 -69 4 -72 7 -3 3 19 5 49 4 78 -2 80
-2 73 16 -4 10 -14 14 -29 11 -27 -5 -30 3 -11 22 10 10 7 10 -12 3 -13 -4
-44 -5 -70 -1 -40 6 -49 4 -70 -18 -19 -18 -26 -21 -33 -11 -13 22 -9 31 12
25 16 -4 19 -1 16 16 -2 16 -10 22 -27 22 -13 0 -30 4 -36 8 -9 5 -13 3 -13
-8 0 -12 -6 -15 -20 -10 -12 4 -20 2 -20 -6 0 -8 -15 -10 -55 -5 -38 4 -55 3
-55 -5 0 -6 7 -9 15 -5 8 3 19 -3 25 -14 15 -28 12 -38 -5 -16 -13 17 -15 18
-15 3 0 -23 -9 -21 -36 8 -27 29 -34 31 -34 9 0 -9 -6 -14 -12 -12 -8 3 -14
25 -15 54 -1 27 -5 86 -9 132 l-6 82 -48 0 c-27 0 -55 3 -63 6 -9 3 -17 -3
-20 -18z m388 -238 c-3 -4 1 -10 7 -13 25 -8 2 -16 -26 -9 -27 7 -28 9 -12 25
17 17 42 14 31 -3z m130 -30 c3 -5 -1 -10 -9 -10 -9 0 -16 5 -16 10 0 6 4 10
9 10 6 0 13 -4 16 -10z m-465 -41 c0 -11 -4 -18 -10 -14 -5 3 -7 12 -3 20 7
21 13 19 13 -6z m260 11 c0 -5 -2 -10 -4 -10 -3 0 -8 5 -11 10 -3 6 -1 10 4
10 6 0 11 -4 11 -10z m95 -1 c11 -16 -2 -22 -32 -14 -26 7 -26 8 -8 15 28 12
33 12 40 -1z m-405 -9 c13 -8 13 -10 -2 -10 -9 0 -20 5 -23 10 -8 13 5 13 25
0z m-638 -42 c-8 -8 -9 -4 -5 13 4 13 8 18 11 10 2 -7 -1 -18 -6 -23z m428 2
c0 -5 -4 -10 -9 -10 -6 0 -13 5 -16 10 -3 6 1 10 9 10 9 0 16 -4 16 -10z m155
-10 c3 -5 -1 -10 -9 -10 -18 0 -21 -21 -6 -36 7 -7 1 -10 -17 -9 -18 0 -29 6
-31 18 -2 10 3 17 12 17 9 0 16 7 16 15 0 17 25 20 35 5z m285 -26 c-18 -21
-24 -10 -9 18 8 14 14 18 17 10 2 -7 -2 -19 -8 -28z m-445 5 c4 -6 14 -8 22
-5 8 3 11 1 8 -4 -3 -6 -1 -10 5 -10 22 0 0 -18 -27 -22 -16 -3 -37 -9 -48
-13 -17 -8 -18 -7 -7 7 11 14 8 18 -24 30 l-37 13 29 6 c46 10 72 10 79 -2z
m265 1 c0 -5 -2 -10 -4 -10 -3 0 -8 5 -11 10 -3 6 -1 10 4 10 6 0 11 -4 11
-10z m-15 -30 c-3 -5 -14 -10 -23 -10 -15 0 -15 2 -2 10 20 13 33 13 25 0z
m-355 -30 c0 -5 -7 -10 -15 -10 -8 0 -15 5 -15 10 0 6 7 10 15 10 8 0 15 -4
15 -10z m325 -30 c0 -8 4 -21 9 -28 4 -7 6 -29 4 -50 -3 -34 -1 -37 24 -40 28
-3 41 -21 29 -40 -10 -17 -51 -2 -51 18 0 10 -10 20 -22 24 -34 9 -38 8 -38
-10 0 -10 -7 -14 -22 -12 -17 2 -22 9 -20 23 2 11 9 22 14 24 6 2 0 10 -13 17
-18 10 -20 13 -7 14 10 0 15 5 12 13 -3 8 0 25 5 39 8 22 16 26 43 25 22 -1
33 -7 33 -17z m166 -63 c-8 -8 -11 -7 -11 4 0 9 3 19 7 23 4 4 9 2 11 -4 3 -7
-1 -17 -7 -23z m282 -33 c17 -15 38 -23 49 -21 10 3 20 2 23 -2 2 -4 -22 -9
-54 -10 l-58 -2 1 31 c1 16 3 30 5 30 2 0 17 -12 34 -26z m84 20 c-3 -3 -12
-4 -19 -1 -8 3 -5 6 6 6 11 1 17 -2 13 -5z m-637 -24 c-6 -11 -13 -20 -16 -20
-2 0 0 9 6 20 6 11 13 20 16 20 2 0 0 -9 -6 -20z m373 -27 c-7 -2 -21 -2 -30
0 -10 3 -4 5 12 5 17 0 24 -2 18 -5z m317 -3 c0 -5 -2 -10 -4 -10 -3 0 -8 5
-11 10 -3 6 -1 10 4 10 6 0 11 -4 11 -10z m-1169 -17 c10 -12 11 -15 1 -9 -7
4 -20 2 -29 -6 -15 -12 -15 -11 -2 10 17 26 13 26 30 5z m582 -30 c-7 -2 -19
-2 -25 0 -7 3 -2 5 12 5 14 0 19 -2 13 -5z m-116 -45 c-9 -6 -8 -8 3 -8 13 0
13 -1 0 -10 -11 -7 -17 -5 -21 8 -9 22 11 49 22 30 5 -7 3 -16 -4 -20z m933
23 c0 -5 -9 -7 -20 -4 -11 3 -20 7 -20 9 0 2 9 4 20 4 11 0 20 -4 20 -9z
m-1400 -11 c0 -5 -7 -10 -15 -10 -8 0 -15 5 -15 10 0 6 7 10 15 10 8 0 15 -4
15 -10z m390 0 c0 -5 -5 -10 -11 -10 -5 0 -7 5 -4 10 3 6 8 10 11 10 2 0 4 -4
4 -10z m-282 -25 c2 -10 -2 -22 -10 -27 -10 -8 -9 -9 4 -5 9 3 22 -1 30 -10
12 -15 10 -16 -16 -9 -27 7 -27 6 -11 -10 13 -14 14 -19 3 -25 -11 -7 -11 -9
0 -9 8 0 12 -6 9 -12 -2 -7 -11 -12 -21 -10 -9 2 -16 -2 -16 -8 0 -5 -5 -10
-12 -10 -6 0 -9 2 -6 5 3 4 2 23 -3 45 -6 28 -5 48 7 75 15 37 36 42 42 10z
m1282 9 c0 -2 -7 -4 -15 -4 -8 0 -15 4 -15 10 0 5 7 7 15 4 8 -4 15 -8 15 -10z
m-785 -13 c30 -7 30 -7 5 -12 -15 -3 -37 2 -55 14 -28 17 -28 18 -5 12 14 -3
39 -10 55 -14z m228 -54 c-4 -22 -2 -23 78 -24 67 -1 86 -5 96 -19 19 -26 16
-37 -9 -29 -39 12 -139 21 -144 13 -13 -21 11 -30 67 -25 33 3 62 1 65 -4 3
-5 15 -9 26 -9 28 0 88 -22 88 -32 0 -4 -9 -8 -21 -8 -13 0 -18 -4 -13 -12 5
-7 2 -9 -8 -5 -9 3 -28 -1 -44 -9 -16 -9 -47 -16 -69 -16 -45 0 -63 -7 -46
-18 7 -4 -5 -7 -25 -8 -31 -1 -35 1 -22 11 8 6 18 20 21 30 8 22 -17 34 -37
18 -10 -9 -15 -8 -20 4 -3 9 -2 14 3 11 10 -6 34 18 26 26 -3 3 -23 2 -45 -2
-22 -4 -37 -3 -34 1 3 5 16 9 29 9 14 0 29 8 35 19 14 28 13 31 -12 32 -13 0
-17 3 -10 6 20 8 14 23 -10 24 -17 1 -19 2 -5 6 16 4 21 19 18 53 -1 12 1 11
12 -3 8 -9 12 -27 10 -40z m204 21 c18 -18 33 -34 33 -37 0 -4 -16 -6 -35 -6
-23 0 -39 7 -49 20 -12 16 -17 18 -27 8 -17 -17 -26 -16 -26 1 0 8 6 12 14 9
9 -4 11 0 6 13 -6 16 -4 17 9 6 13 -10 17 -10 22 3 8 22 16 19 53 -17z m368
11 c16 -16 -19 -9 -40 7 -19 16 -19 16 5 9 14 -4 29 -11 35 -16z m-838 -1 c18
-7 33 -16 33 -20 0 -12 -6 -10 -47 12 -42 22 -36 26 14 8z m323 -18 c0 -4 -6
-10 -12 -13 -8 -3 -13 4 -13 18 0 18 3 21 13 13 6 -6 12 -14 12 -18z m262 -11
c27 -23 47 -44 44 -46 -5 -5 -100 65 -104 78 -7 18 11 8 60 -32z m-1312 21
c-18 -12 -30 -13 -30 -2 0 4 10 9 22 9 18 2 20 0 8 -7z m657 -20 c11 0 37 -7
56 -15 20 -8 59 -16 87 -17 41 -2 48 -5 36 -14 -9 -6 -34 -9 -56 -7 -22 2 -40
0 -40 -5 0 -13 49 -21 85 -15 23 4 27 3 19 -6 -7 -8 -38 -13 -74 -12 -50 0
-66 4 -82 20 -21 24 -60 36 -84 27 -24 -9 -8 -24 39 -36 23 -6 54 -17 68 -25
15 -8 51 -17 80 -19 30 -2 61 -4 69 -5 13 -1 13 -2 0 -11 -8 -5 -46 -7 -85 -4
-48 4 -67 3 -60 -4 14 -14 101 -22 136 -12 36 11 39 -6 4 -22 -18 -8 -25 -18
-23 -32 3 -22 14 -24 65 -12 25 5 25 4 -7 -13 -19 -11 -37 -18 -40 -16 -3 1
-44 6 -93 9 -85 7 -117 13 -127 26 -3 3 -31 14 -62 24 -32 10 -58 23 -58 30 0
6 11 28 25 48 14 20 25 41 25 46 0 5 7 15 15 22 8 7 12 17 9 22 -4 5 -1 21 7
34 11 22 14 23 29 9 9 -8 26 -15 37 -15z m-569 13 c-10 -2 -26 -2 -35 0 -10 3
-2 5 17 5 19 0 27 -2 18 -5z m265 -10 c-7 -2 -19 -2 -25 0 -7 3 -2 5 12 5 14
0 19 -2 13 -5z m-173 -29 c0 -18 -14 -18 -29 0 -9 11 -9 15 1 19 17 6 28 -1
28 -19z m345 -21 c-19 -18 -40 -8 -22 11 6 8 17 11 24 9 9 -4 9 -9 -2 -20z
m-57 2 c-9 -10 -98 -14 -98 -5 0 5 21 10 48 12 48 3 59 2 50 -7z m-243 -120
c0 -44 -1 -45 -32 -45 -33 0 -63 -22 -63 -46 0 -23 -17 -16 -24 9 -3 13 -18
29 -33 37 l-28 13 28 9 c16 6 29 19 33 34 7 25 24 33 24 11 0 -21 36 -49 57
-45 10 2 18 12 19 23 2 37 4 45 12 45 4 0 7 -20 7 -45z m53 1 c-1 -19 -5 -33
-9 -30 -4 2 -10 -2 -13 -8 -4 -7 -4 -2 -1 12 2 14 5 33 5 43 0 9 5 17 10 17 6
0 10 -15 8 -34z m232 -27 c0 -5 -11 -9 -25 -9 -24 0 -32 10 -19 22 8 8 44 -3
44 -13z m66 -24 c22 -9 46 -19 54 -24 18 -10 136 -30 194 -34 38 -2 39 -3 40
-42 1 -22 5 -47 9 -56 7 -13 0 -16 -48 -15 -47 1 -55 4 -55 20 0 16 3 17 12 8
14 -14 78 -16 78 -2 0 6 -16 10 -36 10 -28 0 -35 3 -31 15 9 23 -12 29 -34 9
-17 -16 -19 -16 -19 -1 0 10 -7 17 -15 17 -11 0 -13 -11 -8 -52 3 -31 2 -50
-3 -45 -5 5 -9 14 -9 20 0 7 -17 12 -43 12 -23 0 -42 3 -42 7 0 5 -30 19 -50
23 -3 0 -19 8 -36 17 -24 13 -31 14 -31 3 0 -7 5 -11 11 -9 6 2 24 -7 39 -22
15 -14 44 -28 64 -31 30 -5 33 -8 18 -14 -15 -5 -6 -9 33 -14 31 -5 51 -12 49
-18 -6 -19 -99 -7 -151 19 -27 14 -51 23 -53 20 -10 -10 130 -66 167 -66 32 0
38 -3 33 -16 -4 -11 -8 -12 -13 -4 -11 18 -23 -6 -15 -30 4 -13 2 -20 -7 -20
-34 0 -132 20 -137 28 -3 5 -17 12 -31 16 -23 6 -23 6 -5 -5 11 -7 22 -15 25
-18 13 -16 65 -31 105 -31 25 0 46 -3 46 -7 1 -5 2 -20 3 -35 2 -26 -1 -28
-34 -27 -19 0 -53 4 -75 9 -35 7 -37 9 -17 15 23 8 23 8 2 22 -11 8 -18 17
-16 21 2 4 -7 8 -22 9 -14 0 -29 9 -35 18 -8 14 -11 15 -18 4 -6 -10 -9 -7
-10 11 0 14 -3 19 -6 12 -4 -10 -8 -10 -19 -1 -11 9 -18 8 -31 -2 -16 -13 -17
-12 -5 3 18 23 -3 34 -24 13 -15 -15 -15 -17 1 -35 10 -11 21 -17 25 -15 4 3
10 -2 14 -10 3 -8 13 -15 21 -15 10 0 13 -5 9 -12 -5 -8 -2 -9 9 -5 11 4 17 1
17 -8 0 -8 -3 -15 -7 -15 -11 0 -73 44 -73 53 0 4 -7 7 -15 7 -8 0 -15 5 -15
11 0 5 -4 8 -8 5 -5 -3 -16 4 -25 15 -21 24 -36 25 -33 2 2 -10 15 -22 30 -28
14 -6 23 -14 20 -18 -4 -4 0 -7 9 -7 9 0 21 -8 26 -17 6 -11 11 -13 11 -5 0 7
5 10 10 7 6 -4 8 -10 6 -14 -3 -4 7 -14 22 -22 15 -8 31 -20 35 -27 5 -7 12
-10 18 -7 5 4 9 1 9 -4 0 -6 9 -11 19 -11 11 0 21 -5 23 -12 4 -11 20 -15 91
-20 33 -2 55 -18 25 -18 -9 0 -8 -4 2 -10 19 -12 5 -13 -18 -1 -26 13 -122 21
-122 11 0 -6 15 -10 33 -11 32 -1 91 -16 72 -18 -5 -1 -1 -8 9 -16 11 -8 16
-18 13 -22 -4 -4 -13 -1 -19 5 -9 9 -16 8 -30 -5 -10 -9 -18 -22 -18 -30 0 -8
-4 -11 -10 -8 -5 3 -10 -1 -10 -10 0 -12 -6 -14 -27 -9 -40 10 -47 15 -32 26
10 7 8 8 -8 3 -14 -4 -29 2 -47 18 -33 30 -34 43 -2 22 16 -11 26 -13 31 -6 3
6 -1 11 -10 11 -8 0 -18 7 -21 15 -4 8 -12 15 -20 15 -8 0 -14 5 -14 10 0 6
-7 10 -15 10 -8 0 -15 5 -15 10 0 6 -5 10 -10 10 -6 0 -20 9 -32 20 -12 11
-28 20 -35 20 -8 0 -11 5 -8 10 3 6 2 10 -4 10 -5 0 -22 13 -37 30 -21 22 -34
28 -51 24 -32 -8 -29 2 12 48 20 21 33 42 31 47 -3 4 7 14 21 20 24 11 29 10
45 -11 10 -13 18 -18 18 -13 0 6 4 3 10 -5 13 -21 53 16 41 39 -5 9 -6 22 -4
29 3 6 1 12 -4 12 -5 0 -9 9 -10 20 -1 11 3 18 8 14 5 -3 8 -2 7 3 -1 4 3 17
9 28 6 11 13 29 14 40 2 11 11 25 19 32 19 15 50 17 50 2 0 -5 5 -7 10 -4 6 3
10 -2 10 -12 0 -15 2 -16 10 -3 9 14 15 7 11 -14 -1 -5 5 -6 14 -3 8 4 15 2
15 -4 0 -6 5 -7 10 -4 6 3 10 1 10 -5 0 -7 7 -10 15 -6 8 3 15 1 15 -4 0 -6 7
-10 15 -10 8 0 15 -5 15 -12 0 -6 10 -2 23 10 13 12 28 19 32 15 5 -5 3 0 -4
9 -13 18 -89 58 -109 58 -7 0 -12 5 -12 10 0 6 -3 9 -7 9 -27 -4 -35 1 -23 16
15 19 18 19 66 0z m381 -1 c-3 -3 -12 -4 -19 -1 -8 3 -5 6 6 6 11 1 17 -2 13
-5z m148 -4 c3 -5 1 -10 -4 -10 -6 0 -11 5 -11 10 0 6 2 10 4 10 3 0 8 -4 11
-10z m-885 -10 c0 -5 10 -11 23 -11 18 -1 16 -3 -8 -9 l-30 -8 30 -2 c26 -1
27 -3 10 -10 -11 -5 -14 -9 -7 -9 6 -1 12 -8 12 -16 0 -8 6 -15 13 -15 16 0
39 15 39 25 0 4 -6 12 -14 16 -10 7 -9 9 5 9 9 0 17 -4 17 -9 0 -5 15 -13 33
-17 32 -7 31 -7 -23 -21 -31 -8 -71 -11 -92 -8 -27 5 -38 3 -38 -5 0 -10 -4
-9 -15 0 -9 7 -13 21 -10 31 4 11 -1 21 -12 27 -16 9 -15 11 10 17 15 4 27 11
27 16 0 5 7 9 15 9 8 0 15 -4 15 -10z m70 -10 c0 -5 -2 -10 -4 -10 -3 0 -8 5
-11 10 -3 6 -1 10 4 10 6 0 11 -4 11 -10z m70 -30 c0 -13 -11 -13 -30 0 -12 8
-11 10 8 10 12 0 22 -4 22 -10z m707 -62 c-3 -8 -6 -5 -6 6 -1 11 2 17 5 13 3
-3 4 -12 1 -19z m33 12 c0 -5 -5 -10 -11 -10 -5 0 -7 5 -4 10 3 6 8 10 11 10
2 0 4 -4 4 -10z m-771 -9 c11 -7 11 -13 0 -32 -7 -13 -14 -19 -16 -14 -4 14
-143 6 -143 -8 0 -7 -4 -6 -10 3 -5 8 -12 11 -16 7 -4 -4 0 -15 8 -24 9 -10
14 -23 11 -29 -2 -7 10 -17 27 -22 36 -13 39 -23 6 -20 -14 1 -23 5 -20 9 2 4
-4 10 -13 14 -10 3 -19 1 -21 -4 -5 -14 -49 -14 -57 -1 -3 6 1 7 10 4 11 -4
14 -2 10 9 -4 8 5 31 19 51 13 20 26 41 28 46 2 5 25 3 55 -6 64 -19 99 -16
97 9 -2 19 4 21 25 8z m711 -7 c0 -8 -5 -12 -10 -9 -6 4 -8 11 -5 16 9 14 15
11 15 -7z m-1020 2 c0 -3 -4 -8 -10 -11 -5 -3 -10 -1 -10 4 0 6 5 11 10 11 6
0 10 -2 10 -4z m920 -30 c0 -2 -9 -6 -20 -9 -11 -3 -20 -1 -20 4 0 5 9 9 20 9
11 0 20 -2 20 -4z m-180 -27 c0 -11 -4 -17 -10 -14 -5 3 -10 13 -10 21 0 8 5
14 10 14 6 0 10 -9 10 -21z m510 12 c0 -6 -4 -13 -10 -16 -5 -3 -10 1 -10 9 0
9 5 16 10 16 6 0 10 -4 10 -9z m-930 -35 c0 -7 -6 -19 -14 -25 -18 -15 -30 11
-13 28 15 15 27 14 27 -3z m493 -3 c-7 -2 -19 -2 -25 0 -7 3 -2 5 12 5 14 0
19 -2 13 -5z m257 -3 c0 -5 -5 -10 -11 -10 -5 0 -7 5 -4 10 3 6 8 10 11 10 2
0 4 -4 4 -10z m120 1 c0 -6 -4 -13 -10 -16 -5 -3 -10 1 -10 9 0 9 5 16 10 16
6 0 10 -4 10 -9z m-210 -25 c0 -3 -4 -8 -10 -11 -5 -3 -10 -1 -10 4 0 6 5 11
10 11 6 0 10 -2 10 -4z m-54 -28 c-27 -15 -131 -22 -152 -10 -15 9 -6 11 44
10 34 0 64 1 66 3 3 2 17 5 32 6 24 1 25 0 10 -9z m99 -27 c-6 -5 -21 -12 -35
-15 -24 -7 -24 -6 -6 8 21 17 57 23 41 7z m-65 -22 c0 -5 -11 -9 -24 -9 -14 0
-35 -4 -48 -8 -13 -4 -41 -5 -63 -1 -30 5 -33 7 -12 8 15 0 27 7 27 14 0 9 3
8 9 -2 9 -14 71 -7 71 9 0 4 9 6 20 3 11 -3 20 -9 20 -14z m-237 -19 c3 -11 1
-20 -4 -20 -5 0 -9 9 -9 20 0 11 2 20 4 20 2 0 6 -9 9 -20z m567 0 c0 -5 -5
-10 -11 -10 -5 0 -7 5 -4 10 3 6 8 10 11 10 2 0 4 -4 4 -10z m48 -2 c-3 -7
-13 -15 -23 -16 -15 -4 -16 -2 -4 12 17 19 32 21 27 4z m-828 -22 c0 -3 -4 -8
-10 -11 -5 -3 -10 -1 -10 4 0 6 5 11 10 11 6 0 10 -2 10 -4z m368 -33 c-1 -36
-12 -40 -90 -27 -53 9 -47 20 10 18 l47 -2 -35 11 c-43 13 -43 13 -36 25 3 5
28 9 55 9 l50 -1 -1 -33z m-158 23 c0 -3 -4 -8 -10 -11 -5 -3 -10 -1 -10 4 0
6 5 11 10 11 6 0 10 -2 10 -4z m-240 -22 c0 -8 -5 -12 -10 -9 -6 4 -8 11 -5
16 9 14 15 11 15 -7z m630 6 c0 -5 -2 -10 -4 -10 -3 0 -8 5 -11 10 -3 6 -1 10
4 10 6 0 11 -4 11 -10z m-932 -25 c-6 -14 -13 -23 -16 -21 -7 7 9 46 18 46 5
0 4 -11 -2 -25z m342 -13 c-25 -4 -35 2 -26 17 5 7 13 7 27 -2 20 -12 20 -12
-1 -15z m510 14 c0 -3 -4 -8 -10 -11 -5 -3 -10 -1 -10 4 0 6 5 11 10 11 6 0
10 -2 10 -4z m-774 -30 c10 -22 10 -23 -6 -14 -9 6 -17 17 -17 24 0 21 11 16
23 -10z m475 -19 c-7 -17 -7 -28 0 -32 10 -7 3 -25 -10 -25 -4 0 -15 15 -24
34 -16 35 -16 35 11 44 34 12 35 11 23 -21z m99 7 c0 -2 -16 -4 -35 -4 -19 0
-35 4 -35 8 0 4 16 6 35 4 19 -2 35 -6 35 -8z m70 1 c0 -8 -4 -15 -10 -15 -5
0 -10 7 -10 15 0 8 5 15 10 15 6 0 10 -7 10 -15z m310 -3 c0 -4 -15 -12 -33
-18 -27 -8 -34 -7 -34 3 0 8 6 12 13 9 8 -3 16 -1 19 4 7 12 35 13 35 2z
m-975 -22 c3 -5 1 -10 -4 -10 -6 0 -11 5 -11 10 0 6 2 10 4 10 3 0 8 -4 11
-10z m885 -5 c0 -9 -6 -12 -15 -9 -8 4 -15 1 -15 -5 0 -6 -7 -11 -15 -11 -23
0 -18 19 8 30 31 13 37 12 37 -5z m135 -4 c-3 -6 -14 -11 -23 -11 -13 0 -13 2
4 14 21 15 30 14 19 -3z m-945 -1 c0 -5 6 -10 13 -10 8 0 22 -9 32 -20 18 -20
18 -20 -12 -5 -35 18 -62 45 -44 45 6 0 11 -4 11 -10z m675 -7 c-11 -3 -24 -9
-30 -13 -21 -15 -67 -20 -130 -14 -88 9 -82 23 8 18 39 -2 86 0 102 5 17 5 39
9 50 9 l20 0 -20 -5z m60 -13 c-3 -5 -11 -10 -16 -10 -6 0 -7 5 -4 10 3 6 11
10 16 10 6 0 7 -4 4 -10z m165 0 c0 -5 -2 -10 -4 -10 -3 0 -8 5 -11 10 -3 6
-1 10 4 10 6 0 11 -4 11 -10z m-210 -15 c10 -12 10 -15 -4 -15 -9 0 -16 7 -16
15 0 8 2 15 4 15 2 0 9 -7 16 -15z m170 5 c0 -5 -5 -10 -11 -10 -5 0 -7 5 -4
10 3 6 8 10 11 10 2 0 4 -4 4 -10z m-215 -20 c3 -5 -1 -10 -10 -10 -9 0 -13 5
-10 10 3 6 8 10 10 10 2 0 7 -4 10 -10z m-45 -15 c-6 -10 -70 -7 -120 5 -27 6
-16 8 45 6 44 -2 78 -7 75 -11z m-210 -15 c0 -5 -5 -10 -11 -10 -5 0 -7 5 -4
10 3 6 8 10 11 10 2 0 4 -4 4 -10z m-335 -10 c3 -5 1 -10 -4 -10 -6 0 -11 5
-11 10 0 6 2 10 4 10 3 0 8 -4 11 -10z m605 -10 c0 -5 -5 -10 -11 -10 -5 0 -7
5 -4 10 3 6 8 10 11 10 2 0 4 -4 4 -10z m-131 -34 c-14 -31 -39 -35 -39 -6 0
12 -7 21 -17 21 -10 1 0 5 22 8 22 4 41 6 43 5 1 -1 -3 -13 -9 -28z m91 22 c0
-12 -16 -17 -39 -11 -13 3 -18 9 -12 12 14 9 51 8 51 -1z m-520 -8 c0 -5 -7
-10 -16 -10 -8 0 -12 5 -9 10 3 6 10 10 16 10 5 0 9 -4 9 -10z m190 0 c0 -5
-4 -10 -10 -10 -5 0 -10 5 -10 10 0 6 5 10 10 10 6 0 10 -4 10 -10z"/>
<path d="M1215 1700 c-3 -5 -1 -10 4 -10 6 0 11 5 11 10 0 6 -2 10 -4 10 -3 0
-8 -4 -11 -10z"/>
<path d="M1230 1624 c0 -8 5 -12 10 -9 6 4 8 11 5 16 -9 14 -15 11 -15 -7z"/>
<path d="M1580 1297 c0 -5 -11 -6 -25 -3 -15 4 -25 2 -25 -4 0 -15 27 -23 48
-15 9 5 27 8 40 8 20 -1 20 0 2 4 -11 2 -18 8 -16 12 3 4 -1 8 -9 8 -8 0 -15
-5 -15 -10z"/>
<path d="M1108 1398 c9 -9 33 -16 102 -32 14 -4 18 -3 10 0 -8 4 -17 11 -21
15 -3 5 -27 13 -53 18 -31 6 -44 5 -38 -1z"/>
<path d="M1080 1310 c16 -10 67 -14 58 -4 -3 3 -21 7 -39 9 -25 3 -30 2 -19
-5z"/>
<path d="M1052 1268 c2 -17 10 -23 28 -24 32 -1 100 -33 100 -46 0 -6 6 -8 14
-5 7 3 19 0 25 -6 9 -9 14 -8 21 3 7 10 10 11 10 3 0 -7 7 -13 15 -13 8 0 15
6 15 13 0 6 5 4 11 -5 15 -27 29 -22 29 10 0 26 -2 27 -60 29 -45 2 -59 -1
-55 -10 4 -6 -1 -3 -9 7 -11 13 -16 15 -16 6 0 -9 -7 -7 -23 8 -13 12 -37 25
-55 28 -18 4 -32 10 -32 15 0 5 -5 9 -11 9 -6 0 -9 -10 -7 -22z"/>
<path d="M933 1126 c12 -9 14 -15 6 -18 -6 -2 1 -9 16 -16 14 -7 24 -8 21 -3
-4 5 -1 11 5 13 6 2 -7 11 -28 21 -25 11 -32 12 -20 3z"/>
<path d="M1142 1068 c6 -16 33 -22 56 -13 15 6 15 8 -3 15 -31 13 -57 12 -53
-2z"/>
<path d="M900 1031 c0 -9 30 -24 36 -18 2 1 -6 8 -16 15 -11 7 -20 8 -20 3z"/>
<path d="M950 1000 c-9 -6 -10 -10 -3 -10 6 0 15 5 18 10 8 12 4 12 -15 0z"/>
<path d="M880 996 c0 -8 71 -48 76 -43 3 3 -12 15 -35 27 -23 11 -41 18 -41
16z"/>
<path d="M1000 970 c0 -5 5 -10 10 -10 6 0 10 5 10 10 0 6 -4 10 -10 10 -5 0
-10 -4 -10 -10z"/>
<path d="M1050 946 c0 -9 5 -16 10 -16 6 0 10 4 10 9 0 6 -4 13 -10 16 -5 3
-10 -1 -10 -9z"/>
<path d="M1104 929 c-6 -10 15 -22 44 -25 17 -2 22 2 20 13 -3 16 -55 26 -64
12z"/>
<path d="M760 833 c0 -5 22 -24 50 -43 27 -19 49 -38 50 -42 0 -5 6 -8 13 -8
7 0 22 -8 33 -19 70 -64 174 -101 174 -61 0 17 -7 20 -44 20 -26 0 -48 6 -56
15 -7 8 -19 15 -26 15 -8 0 -14 5 -14 10 0 6 -6 10 -13 10 -7 0 -22 8 -33 18
-10 10 -35 29 -54 42 -19 13 -41 30 -48 37 -15 14 -32 17 -32 6z"/>
<path d="M718 1113 c7 -3 16 -2 19 1 4 3 -2 6 -13 5 -11 0 -14 -3 -6 -6z"/>
<path d="M2480 2055 c-13 -16 -7 -45 10 -45 5 0 10 14 10 30 0 34 -3 36 -20
15z"/>
<path d="M2345 2033 c-54 -10 -63 -14 -68 -33 -4 -14 -14 -21 -39 -22 -81 -4
-125 10 -114 38 3 8 0 11 -9 8 -7 -3 -15 -14 -18 -25 -3 -10 -13 -19 -22 -19
-9 0 -13 -5 -9 -11 9 -15 -58 0 -68 15 -5 7 -8 5 -8 -6 0 -23 -48 -25 -56 -3
-4 10 -13 13 -26 9 -11 -3 -27 -7 -34 -8 -7 -1 -16 -5 -20 -9 -4 -3 3 -5 15
-2 22 4 30 -10 10 -17 -7 -2 4 -20 23 -41 27 -28 43 -37 67 -37 18 0 30 -4 27
-9 -3 -4 -18 -6 -33 -3 -23 4 -26 2 -16 -8 15 -16 54 -20 108 -13 36 6 38 7
15 14 -22 6 -21 7 10 8 19 0 62 -4 95 -9 33 -6 77 -12 98 -14 21 -2 40 -6 44
-10 6 -6 -15 -7 -220 -11 -59 -1 -110 -5 -114 -9 -4 -3 3 -20 15 -36 12 -16
22 -33 22 -37 0 -4 10 -31 22 -60 l22 -53 28 27 c36 35 35 48 -4 62 -46 16
-30 22 22 8 25 -7 46 -19 48 -27 5 -24 46 -53 114 -79 87 -34 89 -39 19 -43
-34 -1 -61 0 -61 5 0 4 5 7 12 7 9 0 9 3 1 11 -14 14 -163 1 -163 -13 0 -6 16
-8 35 -6 19 2 35 0 35 -4 0 -4 -17 -8 -37 -8 -21 0 -33 -4 -28 -8 16 -11 41
-47 28 -39 -8 5 -11 -8 -10 -49 l1 -56 43 5 c30 3 47 0 56 -11 10 -13 8 -15
-22 -9 -21 5 -39 3 -48 -5 -11 -9 -16 -9 -24 3 -7 11 -9 11 -9 -3 0 -10 5 -18
12 -18 9 0 9 -3 0 -12 -7 -7 -12 -40 -12 -77 0 -37 -5 -84 -10 -105 -5 -22 -7
-42 -5 -46 2 -3 49 -1 105 4 l102 9 31 -33 c29 -28 30 -31 9 -25 -25 7 -92
-11 -92 -26 0 -5 6 -9 14 -9 14 0 29 -37 20 -52 -8 -12 -52 -10 -60 3 -5 8
-10 6 -16 -5 -5 -9 -7 -20 -3 -25 3 -5 1 -12 -5 -16 -6 -3 -13 1 -16 9 -3 9
-17 16 -29 16 -30 0 -87 63 -61 68 19 4 20 12 3 36 -12 17 -16 12 -36 -48 -12
-36 -19 -71 -15 -78 5 -7 2 -9 -8 -5 -11 4 -21 -6 -34 -36 -10 -22 -19 -45
-20 -51 -4 -41 -4 -41 -13 -28 -6 9 -18 1 -44 -32 -21 -24 -37 -49 -37 -55 0
-7 -12 -16 -26 -21 -18 -7 -24 -15 -20 -26 4 -10 1 -14 -6 -11 -11 4 -69 -31
-88 -52 -3 -4 -14 -11 -25 -17 -11 -6 -40 -22 -65 -35 -109 -60 -247 -97 -374
-101 l-76 -2 0 -33 c0 -18 -4 -33 -10 -33 -5 0 -8 15 -5 35 3 29 1 35 -15 37
-11 0 -25 1 -32 2 -6 1 -13 -12 -15 -29 -3 -16 -10 -33 -16 -37 -9 -6 -9 -8 1
-8 7 0 10 -5 7 -10 -3 -6 3 -10 14 -10 26 0 51 -10 51 -21 0 -5 -11 -7 -24 -3
-14 3 -27 1 -31 -6 -5 -8 -2 -10 11 -6 30 9 48 -8 40 -38 -4 -17 -11 -23 -21
-20 -8 4 -15 11 -15 18 0 18 -31 33 -96 46 -32 6 -71 17 -87 23 -27 12 -37 37
-14 37 8 0 8 3 -2 9 -9 6 -22 6 -34 -1 -11 -5 -17 -6 -14 -1 3 5 -7 17 -23 27
-25 14 -29 21 -23 48 5 24 3 30 -8 26 -8 -3 -13 -15 -11 -28 4 -22 3 -22 -13
-7 -12 13 -14 21 -5 37 8 16 8 20 -4 20 -8 0 -16 -5 -18 -12 -5 -14 -114 63
-142 100 -15 19 -16 28 -7 54 10 28 8 34 -27 72 -20 23 -47 53 -59 69 -20 25
-41 39 -28 17 3 -5 1 -10 -5 -10 -6 0 -8 -5 -4 -11 5 -8 1 -8 -14 0 -11 6 -29
11 -39 11 -16 -1 -16 -2 2 -12 11 -7 25 -13 30 -14 35 -4 37 -7 10 -13 -34 -8
-65 3 -65 24 0 19 36 39 45 25 11 -17 25 -1 25 29 0 15 -7 36 -15 47 -14 18
-14 18 -15 -11 0 -21 -3 -26 -11 -18 -8 8 -8 17 0 31 8 15 3 40 -23 113 -21
58 -38 130 -45 189 -15 131 -19 210 -11 210 3 0 12 30 20 68 23 122 86 260
159 351 20 25 30 41 23 37 -7 -4 -15 -1 -18 8 -3 9 -10 14 -14 11 -5 -3 -11
-1 -15 5 -8 13 -45 13 -45 1 0 -6 -15 -8 -33 -7 -17 2 -22 1 -9 -1 12 -2 22
-11 22 -19 0 -8 -10 -14 -22 -14 -19 0 -20 2 -8 10 11 7 4 9 -25 9 -35 -1 -37
-2 -15 -9 24 -8 23 -8 -7 -9 -18 -1 -33 4 -33 9 0 6 -19 11 -42 11 -24 1 -35
3 -25 6 9 2 17 8 17 12 0 12 -53 0 -68 -16 -18 -17 -49 -18 -34 0 8 9 1 13
-29 15 -29 2 -39 -1 -39 -13 0 -18 -9 -19 -32 -1 -11 8 -14 16 -8 22 6 6 -6 9
-32 7 -47 -2 -67 5 -47 18 10 6 10 9 2 9 -20 0 -24 -17 -8 -33 8 -9 15 -19 15
-24 0 -5 14 -17 30 -26 17 -10 30 -15 30 -11 0 4 9 -2 20 -14 23 -24 35 -29
24 -9 -4 6 1 5 12 -4 26 -22 74 -30 74 -13 0 8 4 14 10 14 5 0 7 -7 4 -15 -5
-11 -2 -13 10 -9 9 3 16 10 16 16 0 5 5 6 12 2 18 -11 -21 -34 -53 -30 -16 2
-26 -1 -23 -5 3 -5 20 -9 37 -9 18 0 38 -4 45 -9 7 -4 32 -5 54 -1 30 6 45 4
55 -6 12 -12 10 -13 -16 -8 -27 6 -29 4 -24 -15 3 -11 9 -21 14 -21 5 0 9 -4
9 -9 0 -5 -9 -7 -20 -4 -12 3 -29 -2 -42 -13 -12 -11 -18 -13 -14 -6 4 6 4 12
-1 13 -4 0 -26 3 -48 6 -22 2 -53 4 -69 4 -16 0 -35 4 -41 9 -8 6 -18 5 -31
-5 -10 -8 -27 -15 -36 -15 -13 0 -18 -8 -18 -30 0 -29 1 -30 23 -18 35 19 168
29 174 13 1 -5 -16 -11 -40 -12 -101 -4 -130 -10 -147 -33 -10 -13 -21 -20
-27 -17 -21 13 -33 -9 -22 -40 10 -31 11 -31 66 -26 41 5 54 3 49 -5 -4 -7
-18 -12 -31 -12 -13 0 -26 -6 -28 -12 -4 -10 -6 -10 -6 0 -1 6 -8 12 -16 12
-17 0 -20 -32 -6 -59 7 -13 3 -21 -20 -36 l-29 -20 0 -352 c0 -201 4 -353 9
-353 17 0 20 -29 6 -44 -12 -11 -15 -42 -15 -132 0 -105 2 -116 14 -98 14 18
15 18 26 -12 9 -26 15 -30 38 -27 24 3 25 2 7 -7 -16 -8 -13 -9 17 -5 28 4 39
2 47 -12 6 -10 11 -13 11 -7 0 16 183 -34 193 -52 4 -8 13 -14 18 -14 6 0 8 4
5 9 -3 5 1 11 8 14 8 3 17 1 20 -6 3 -8 5 -6 5 3 1 8 12 20 26 26 23 11 24 10
21 -16 -5 -43 -13 -49 -56 -43 -32 5 -40 2 -40 -10 0 -14 -8 -13 -72 4 -135
38 -239 75 -231 83 4 5 -2 5 -14 2 -17 -5 -23 -3 -23 8 0 8 -4 18 -10 21 -6 4
-9 -69 -10 -200 l0 -205 1250 0 1250 0 0 243 c0 220 -2 245 -18 263 -10 10
-21 27 -25 36 -3 10 -11 18 -17 18 -5 0 -10 6 -10 13 0 7 -11 24 -25 39 -14
15 -25 32 -25 38 0 5 -4 10 -10 10 -5 0 -10 7 -10 15 0 8 -4 15 -10 15 -5 0
-10 6 -10 14 0 8 -13 27 -28 44 -32 34 -28 72 7 72 11 0 25 9 31 21 9 16 8 25
-6 40 -9 10 -23 19 -31 19 -7 0 -13 6 -13 13 0 6 -3 22 -6 35 -10 35 13 26 44
-18 22 -32 33 -39 60 -40 28 0 32 -3 32 -26 0 -21 3 -25 18 -19 9 4 25 10 35
12 16 5 17 40 17 560 0 475 -3 557 -15 570 -8 8 -18 12 -22 10 -5 -3 -32 -8
-60 -11 -43 -4 -53 -2 -53 9 0 8 7 15 15 15 15 0 21 16 8 23 -5 2 -17 2 -28 0z
m-165 -94 c0 -5 -6 -9 -14 -9 -8 0 -22 -3 -30 -6 -11 -4 -15 -2 -11 7 6 15 55
22 55 8z m51 -25 c-3 -18 -2 -18 15 -2 17 15 57 22 107 19 26 -2 20 -21 -6
-21 -13 0 -37 -7 -54 -15 -46 -23 -111 -28 -129 -11 -12 12 -20 13 -39 4 -14
-6 -28 -8 -32 -4 -13 13 13 25 59 27 29 2 49 8 53 17 7 20 31 8 26 -14z
m-2117 -16 c-9 -14 -22 -9 -27 11 -4 17 -2 18 13 8 10 -6 16 -15 14 -19z
m2351 23 c7 -12 -12 -24 -25 -16 -11 7 -4 25 10 25 5 0 11 -4 15 -9z m-2282
-18 c-4 -9 -2 -14 3 -10 6 3 16 1 24 -4 11 -7 8 -8 -10 -5 -14 3 -28 5 -31 5
-12 2 -5 31 7 31 8 0 11 -6 7 -17z m340 -10 c-7 -2 -19 -2 -25 0 -7 3 -2 5 12
5 14 0 19 -2 13 -5z m-313 -43 c0 -4 -9 -6 -21 -3 -15 4 -17 8 -8 14 14 8 29
3 29 -11z m296 -2 c4 4 2 -1 -5 -10 -10 -14 -11 -21 -2 -32 10 -12 8 -13 -8
-9 -15 4 -21 13 -21 35 0 24 3 28 13 19 8 -6 18 -7 23 -3z m-126 -18 c0 -5 -2
-10 -4 -10 -3 0 -8 5 -11 10 -3 6 -1 10 4 10 6 0 11 -4 11 -10z m1990 -110 c0
-5 -4 -10 -10 -10 -5 0 -10 5 -10 10 0 6 5 10 10 10 6 0 10 -4 10 -10z m50 6
c0 -3 -4 -8 -10 -11 -5 -3 -10 -1 -10 4 0 6 5 11 10 11 6 0 10 -2 10 -4z m47
-2 c-3 -3 -12 -4 -19 -1 -8 3 -5 6 6 6 11 1 17 -2 13 -5z m-147 -186 c0 -9 6
-18 13 -21 6 -2 -13 -5 -42 -5 -34 -1 -58 3 -63 11 -14 23 -8 30 22 23 17 -3
29 -2 26 3 -3 5 5 8 19 7 16 0 25 -7 25 -18z m-127 -25 c-13 -2 -33 -2 -45 0
-13 2 -3 4 22 4 25 0 35 -2 23 -4z m130 -45 c4 -14 1 -15 -20 -7 -13 5 -38 9
-54 9 -16 0 -29 4 -29 9 0 5 22 9 49 8 37 -2 51 -6 54 -19z m-1953 -78 c0 -5
-5 -10 -11 -10 -5 0 -7 5 -4 10 3 6 8 10 11 10 2 0 4 -4 4 -10z m1910 -60 c0
-20 -5 -30 -15 -30 -8 0 -15 -4 -15 -9 0 -5 -3 -16 -6 -24 -4 -12 0 -14 15
-10 15 4 21 1 21 -11 0 -21 -8 -23 -92 -30 -55 -4 -68 -2 -68 10 0 8 5 14 11
14 6 0 9 7 5 15 -3 8 -2 14 2 14 4 -1 28 -1 55 0 36 1 47 5 47 17 0 13 -9 14
-55 9 l-55 -7 0 30 c0 33 7 36 113 40 35 2 37 0 37 -28z m-2115 -90 c3 -5 2
-10 -4 -10 -5 0 -13 5 -16 10 -3 6 -2 10 4 10 5 0 13 -4 16 -10z m185 -20 c0
-5 -7 -7 -15 -4 -8 4 -15 8 -15 10 0 2 7 4 15 4 8 0 15 -4 15 -10z m-37 -97
c-3 -31 -13 -68 -22 -82 -15 -23 -15 -25 2 -18 13 5 17 1 17 -18 0 -19 -4 -23
-17 -19 -10 3 -7 -1 7 -9 l25 -15 -28 -13 c-15 -7 -29 -10 -32 -7 -12 12 16
202 32 220 9 10 17 18 19 18 1 0 0 -26 -3 -57z m47 -150 c0 -19 -13 -9 -16 12
-1 8 2 13 7 9 5 -3 9 -12 9 -21z m1750 -7 c0 -3 -4 -8 -10 -11 -5 -3 -10 -1
-10 4 0 6 5 11 10 11 6 0 10 -2 10 -4z m97 -95 c0 -11 -5 -17 -9 -15 -5 3 -6
10 -3 15 4 5 1 9 -6 9 -6 0 -9 -8 -6 -19 3 -14 1 -18 -9 -14 -14 5 -19 44 -8
56 12 12 43 -13 41 -32z m-2004 23 c3 -4 -1 -13 -9 -21 -17 -18 -29 -11 -21
12 7 16 19 20 30 9z m1862 -14 c-10 -11 -21 -18 -23 -15 -3 3 3 12 14 20 27
20 30 18 9 -5z m-1944 -81 c-19 -16 -36 -27 -38 -25 -2 1 7 21 19 44 21 37 25
40 38 26 13 -14 11 -19 -19 -45z m138 0 c1 -15 -5 -32 -13 -39 -23 -19 -7 -40
36 -46 25 -5 35 -10 27 -15 -7 -4 -27 -5 -44 -2 -21 4 -27 2 -20 -5 6 -6 27
-13 47 -15 21 -2 41 -7 45 -12 5 -4 -18 -5 -50 -2 -34 3 -55 2 -52 -4 4 -5 19
-9 36 -9 16 0 29 -5 29 -11 0 -6 -8 -8 -17 -5 -10 3 -31 8 -48 11 l-30 6 30
-17 c19 -11 52 -17 88 -17 31 0 57 -5 57 -10 0 -6 -2 -8 -6 -5 -3 3 -21 2 -41
-2 -23 -6 -51 -4 -82 6 -56 17 -58 17 -44 3 6 -6 32 -17 59 -25 l49 -14 -45 5
c-25 2 -55 7 -65 11 -18 6 -18 5 -5 -8 16 -16 93 -38 133 -38 14 0 35 9 48 21
l24 20 -22 -6 c-26 -7 -31 10 -6 19 10 4 20 1 25 -8 5 -8 15 -21 23 -29 20
-21 -7 -57 -43 -57 -15 0 -41 -4 -58 -9 -19 -5 -37 -5 -49 1 -27 16 -125 36
-130 28 -3 -4 2 -14 11 -21 14 -12 14 -14 -2 -19 -14 -5 -6 -11 31 -24 28 -10
57 -21 65 -25 8 -5 25 -7 37 -5 12 2 25 -1 28 -6 4 -6 11 -8 16 -5 5 4 9 1 9
-5 0 -6 -10 -15 -22 -20 -18 -7 -19 -9 -5 -9 9 -1 17 -5 17 -10 0 -10 -27 -4
-160 34 -107 31 -104 30 -95 45 5 9 10 9 18 1 18 -18 23 -13 23 24 0 39 -10
45 -28 16 -9 -14 -14 -16 -24 -7 -10 9 -6 17 19 38 18 16 35 28 40 28 4 0 7 6
7 13 0 7 11 28 24 47 13 20 32 59 42 88 10 28 22 52 27 52 5 0 5 9 2 20 -4 11
-2 20 4 20 6 0 11 17 12 38 0 30 2 33 9 17 5 -11 9 -32 9 -46z m46 41 c3 -6
-1 -7 -9 -4 -18 7 -21 14 -7 14 6 0 13 -4 16 -10z m125 -34 c0 -16 -68 -62
-77 -52 -4 3 0 6 8 6 12 0 11 2 -1 11 -13 9 -13 10 1 6 10 -3 26 5 40 19 26
28 29 29 29 10z m1614 -18 c-3 -4 0 -8 6 -8 6 0 8 -4 5 -10 -4 -6 -11 -5 -20
3 -7 6 -9 13 -5 15 5 2 6 11 3 20 -4 14 -3 14 5 2 6 -8 8 -18 6 -22z m122 2
c0 -11 -4 -20 -8 -20 -10 0 -11 24 -1 33 9 9 9 10 9 -13z m-16 -56 c0 -8 -4
-12 -10 -9 -5 3 -10 13 -10 21 0 8 5 12 10 9 6 -3 10 -13 10 -21z m-1662 2
c15 3 23 2 20 -2 -9 -9 -70 -14 -82 -6 -5 3 -1 9 10 12 10 4 20 4 22 -1 2 -4
15 -5 30 -3z m-68 -26 c0 -5 -4 -10 -9 -10 -4 0 -5 -19 -1 -42 6 -30 18 -51
39 -69 21 -17 26 -26 15 -26 -8 0 -31 21 -50 46 -18 25 -39 52 -45 59 -8 10
-7 18 7 33 18 20 44 26 44 9z m1610 -15 c10 -12 10 -15 -4 -15 -9 0 -16 7 -16
15 0 8 2 15 4 15 2 0 9 -7 16 -15z m100 -10 c-7 -8 -22 -14 -34 -14 -20 1 -20
2 -1 6 11 3 24 9 30 14 15 14 19 10 5 -6z m66 -9 c0 -15 -7 -24 -17 -23 -12 1
-13 5 -5 24 14 30 24 29 22 -1z m-1712 -58 c-3 -4 -11 -5 -19 -1 -21 7 -19 12
4 10 11 0 18 -5 15 -9z m1326 2 c0 -5 -5 -10 -11 -10 -5 0 -7 5 -4 10 3 6 8
10 11 10 2 0 4 -4 4 -10z m437 -32 c-3 -8 -6 -5 -6 6 -1 11 2 17 5 13 3 -3 4
-12 1 -19z m-85 -2 c19 -1 26 -6 25 -19 -1 -9 -6 -16 -12 -14 -37 15 -59 18
-50 9 20 -20 101 -30 139 -17 44 15 46 11 6 -14 -25 -15 -39 -17 -76 -10 -25
5 -51 12 -57 16 -7 4 -6 0 2 -10 7 -9 17 -14 22 -11 5 3 9 0 9 -5 0 -14 76
-14 102 0 26 14 36 3 15 -18 -18 -18 -79 -21 -147 -8 -30 5 -32 5 -15 -6 36
-23 103 -30 145 -15 22 7 37 9 34 4 -4 -6 0 -14 7 -19 11 -7 9 -9 -6 -7 -58 4
-149 -3 -136 -11 8 -5 42 -7 75 -5 43 3 56 1 46 -6 -20 -13 -120 -13 -159 1
-18 6 -35 9 -38 5 -14 -13 58 -30 137 -33 101 -2 100 -2 75 -13 -11 -5 -53 -9
-93 -9 -51 -1 -71 -4 -66 -12 4 -8 32 -10 81 -7 71 5 104 -4 64 -17 -33 -10
-154 -3 -190 11 -39 16 -41 17 -41 6 0 -4 23 -16 50 -26 68 -24 206 -20 222 7
13 25 30 10 85 -76 46 -73 58 -111 18 -62 -13 17 -31 38 -40 48 -8 9 -15 25
-15 36 0 29 -22 42 -44 25 -14 -10 -52 -14 -130 -15 -72 0 -104 -3 -91 -9 11
-5 39 -9 63 -9 57 -1 54 -16 -5 -19 -48 -2 -113 15 -113 30 0 4 -9 8 -21 8
-14 0 -19 -5 -17 -17 2 -10 11 -17 21 -17 9 1 17 -2 17 -8 0 -5 5 -6 11 -2 6
3 15 1 19 -6 10 -16 102 -31 143 -23 20 4 28 3 24 -4 -4 -6 -28 -11 -54 -11
-27 0 -59 -1 -73 -1 l-24 -1 21 -15 c19 -13 26 -13 44 -3 17 10 23 10 26 1 3
-10 10 -10 24 -2 23 12 43 3 35 -16 -3 -8 2 -11 14 -8 11 3 18 10 17 15 -1 6
3 12 10 15 6 2 13 -6 15 -19 2 -17 11 -24 31 -26 16 -2 34 1 41 7 13 11 26 5
26 -11 0 -4 -83 -8 -185 -8 -117 0 -185 4 -185 10 0 6 8 10 18 11 13 0 14 2 2
6 -49 16 -78 35 -83 53 -3 11 -12 20 -21 20 -9 0 -16 5 -16 10 0 6 4 10 10 10
5 0 8 21 7 46 -2 25 1 48 5 50 4 3 8 13 8 23 0 10 11 26 25 35 14 9 25 23 25
31 0 8 4 15 9 15 5 0 13 10 17 23 3 12 13 30 22 40 8 9 12 20 9 23 -3 4 1 20
9 36 11 22 20 28 32 22 9 -4 29 -7 44 -8z m-1617 -5 c3 -5 2 -12 -3 -15 -5 -3
-9 1 -9 9 0 17 3 19 12 6z m1175 -1 c0 -5 -5 -10 -11 -10 -5 0 -7 5 -4 10 3 6
8 10 11 10 2 0 4 -4 4 -10z m-45 -9 c3 -5 2 -12 -3 -15 -5 -3 -9 1 -9 9 0 17
3 19 12 6z m-45 -25 c0 -3 -4 -8 -10 -11 -5 -3 -10 -1 -10 4 0 6 5 11 10 11 6
0 10 -2 10 -4z m-60 -16 c0 -5 -5 -10 -11 -10 -5 0 -7 5 -4 10 3 6 8 10 11 10
2 0 4 -4 4 -10z m-43 -26 c-3 -3 -12 -4 -19 -1 -8 3 -5 6 6 6 11 1 17 -2 13
-5z m-57 -14 c0 -5 -5 -10 -11 -10 -5 0 -7 5 -4 10 3 6 8 10 11 10 2 0 4 -4 4
-10z m-37 -7 c-7 -2 -19 -2 -25 0 -7 3 -2 5 12 5 14 0 19 -2 13 -5z m207 -3
c0 -5 -5 -10 -11 -10 -5 0 -7 5 -4 10 3 6 8 10 11 10 2 0 4 -4 4 -10z m-285
-20 c-3 -5 -13 -6 -21 -3 -12 4 -13 8 -3 14 15 9 32 2 24 -11z m-1065 -10 c8
-5 11 -10 5 -10 -5 0 -17 5 -25 10 -8 5 -10 10 -5 10 6 0 17 -5 25 -10z m137
-10 c3 -10 2 -11 -4 -4 -4 6 -15 14 -23 17 -11 5 -9 6 4 4 11 -1 21 -9 23 -17z
m864 -30 c23 0 29 4 29 21 0 11 5 17 10 14 6 -4 8 -10 5 -15 -3 -5 -1 -11 5
-15 5 -3 10 1 10 10 0 9 5 15 11 13 6 -2 10 -7 10 -11 -1 -4 -1 -16 -1 -26 0
-16 -6 -18 -42 -15 -24 3 -52 7 -63 9 -11 2 -23 4 -27 4 -5 1 -8 6 -8 12 0 5
5 7 10 4 6 -3 11 4 11 17 l2 23 4 -22 c3 -18 11 -23 34 -23z m249 30 c0 -5 -4
-10 -10 -10 -5 0 -10 5 -10 10 0 6 5 10 10 10 6 0 10 -4 10 -10z m-1170 -31
c0 -5 -4 -9 -10 -9 -5 0 -10 7 -10 16 0 8 5 12 10 9 6 -3 10 -10 10 -16z m38
9 c-2 -6 -10 -13 -16 -14 -9 -2 -9 -1 -1 3 8 4 7 8 -2 14 -11 7 -10 9 4 9 10
0 17 -5 15 -12z m1072 2 c0 -5 -2 -10 -4 -10 -3 0 -8 5 -11 10 -3 6 -1 10 4
10 6 0 11 -4 11 -10z m860 -47 c0 -7 -7 -13 -16 -13 -13 0 -14 3 -5 14 8 10 9
16 1 21 -5 3 -10 12 -10 18 1 16 30 -23 30 -40z m-1880 27 c0 -5 -4 -10 -10
-10 -5 0 -10 5 -10 10 0 6 5 10 10 10 6 0 10 -4 10 -10z m95 -6 l40 -14 -44 6
c-48 5 -93 24 -56 23 11 0 38 -7 60 -15z m384 -26 c-1 -15 -27 -85 -29 -78 -5
17 -7 76 -3 83 7 12 33 8 32 -5z m-374 -12 c27 -11 32 -19 28 -35 -8 -31 -17
-32 -30 -5 -8 18 -8 24 0 25 7 1 -8 7 -33 14 -28 8 -36 13 -22 14 12 1 38 -5
57 -13z m435 4 c0 -5 -4 -10 -10 -10 -5 0 -10 5 -10 10 0 6 5 10 10 10 6 0 10
-4 10 -10z m386 -12 c0 -13 -5 -16 -16 -12 -8 4 -35 9 -59 12 -55 5 -38 17 26
18 41 1 49 -2 49 -18z m-636 -4 c0 -2 -7 -4 -15 -4 -8 0 -15 4 -15 10 0 5 7 7
15 4 8 -4 15 -8 15 -10z m-253 0 c-3 -3 -12 -4 -19 -1 -8 3 -5 6 6 6 11 1 17
-2 13 -5z m593 2 c0 -2 3 -12 7 -22 4 -12 3 -15 -5 -10 -7 4 -12 2 -12 -5 0
-7 -6 -4 -14 6 -8 11 -12 23 -10 27 5 8 34 11 34 4z m-265 -16 c19 -8 19 -9
-2 -9 -12 -1 -25 4 -28 9 -7 12 2 12 30 0z m502 -6 c-3 -3 -12 -4 -19 -1 -8 3
-5 6 6 6 11 1 17 -2 13 -5z m-599 -13 c11 -7 10 -9 -3 -14 -9 -4 -13 -3 -10 3
13 21 -11 8 -32 -17 -22 -27 -23 -24 -8 22 5 16 32 20 53 6z m106 -61 c12 -14
32 -30 46 -37 39 -19 375 -64 507 -68 63 -2 73 1 78 17 4 10 12 18 18 19 7 0
24 3 40 5 15 3 27 0 27 -6 0 -5 -15 -10 -34 -10 -32 0 -34 -2 -30 -30 5 -29 4
-30 -35 -30 -30 0 -41 -5 -45 -18 -6 -17 -13 -18 -74 -10 -94 11 -123 18 -116
29 3 5 -1 9 -8 10 -7 0 -4 4 7 9 13 6 15 9 5 9 -8 0 -24 -6 -34 -14 -12 -9
-24 -11 -30 -6 -6 5 -32 12 -58 14 -26 3 -53 9 -59 13 -6 3 -14 2 -18 -4 -12
-20 -162 7 -194 34 -16 13 -33 24 -38 24 -5 0 -2 11 7 25 12 19 13 25 3 25
-14 0 -49 29 -49 41 0 14 62 -16 84 -41z m21 40 c3 -5 1 -10 -4 -10 -6 0 -11
5 -11 10 0 6 2 10 4 10 3 0 8 -4 11 -10z m127 -14 c4 -18 1 -22 -12 -19 -12 3
-16 11 -13 24 7 26 20 24 25 -5z m114 3 c3 -5 -4 -9 -16 -9 -12 0 -18 -4 -15
-10 3 -5 -1 -10 -9 -10 -15 0 -22 30 -10 42 7 8 43 -2 50 -13z m284 1 c0 -5
-7 -10 -16 -10 -8 0 -12 5 -9 10 3 6 10 10 16 10 5 0 9 -4 9 -10z m-143 -16
c-3 -4 -1 -16 4 -27 8 -14 8 -22 -1 -27 -27 -16 4 -30 66 -30 35 0 64 -4 64
-9 0 -8 -69 -5 -155 9 -31 5 -39 8 -21 9 25 1 28 4 24 26 -3 13 -1 22 3 19 13
-8 11 10 -3 24 -9 9 -8 12 7 12 10 0 15 -3 12 -6z m1083 -3 c0 -6 -9 -9 -20
-8 -11 1 -20 5 -20 9 0 4 9 8 20 8 11 0 20 -4 20 -9z m-983 -17 c-3 -3 -12 -4
-19 -1 -8 3 -5 6 6 6 11 1 17 -2 13 -5z m173 -4 c0 -5 -10 -10 -22 -9 -22 0
-22 1 -3 9 11 5 21 9 23 9 1 1 2 -3 2 -9z m-585 -18 c-3 -3 -11 0 -18 7 -9 10
-8 11 6 5 10 -3 15 -9 12 -12z m193 2 c-9 -9 -21 -13 -28 -9 -14 9 5 25 30 25
12 0 12 -3 -2 -16z m52 0 c0 -8 -4 -12 -10 -9 -5 3 -10 10 -10 16 0 5 5 9 10
9 6 0 10 -7 10 -16z m445 6 c-3 -5 -12 -7 -20 -3 -21 7 -19 13 6 13 11 0 18
-4 14 -10z m-625 -10 c0 -13 -20 -13 -40 0 -12 8 -9 10 13 10 15 0 27 -4 27
-10z m60 -5 c-7 -9 -15 -13 -17 -11 -7 7 7 26 19 26 6 0 6 -6 -2 -15z m410 5
c0 -5 -2 -10 -4 -10 -3 0 -8 5 -11 10 -3 6 -1 10 4 10 6 0 11 -4 11 -10z m450
2 c0 -8 -140 -4 -149 4 -2 2 30 4 72 4 43 0 77 -4 77 -8z m-760 -22 c6 -11 8
-20 6 -20 -3 0 -10 9 -16 20 -6 11 -8 20 -6 20 3 0 10 -9 16 -20z m796 9 c4
-7 0 -16 -9 -20 -23 -14 -10 -49 19 -49 13 0 24 -4 24 -10 0 -5 9 -10 19 -10
11 0 22 -3 24 -7 3 -5 91 -8 196 -8 105 0 191 -3 191 -7 0 -4 -33 -9 -72 -11
l-73 -3 88 -2 c97 -2 112 -18 20 -21 -31 -1 -59 -4 -62 -7 -4 -4 27 -4 67 -2
39 3 72 1 72 -3 0 -4 -99 -8 -220 -9 -217 -1 -270 6 -254 32 5 7 2 9 -9 5 -28
-11 -71 8 -77 34 -4 15 -14 25 -27 27 -12 2 -25 12 -28 23 -5 14 -16 19 -41
19 -19 0 -33 -3 -32 -7 0 -5 -4 -19 -10 -33 -10 -24 -11 -23 -11 12 -1 45 16
52 109 44 47 -4 62 -2 67 10 6 17 19 18 29 3z m-386 -3 c0 -2 -11 -6 -25 -8
-14 -3 -25 -1 -25 3 0 5 11 9 25 9 14 0 25 -2 25 -4z m78 -29 c7 -15 10 -32 6
-39 -5 -7 -11 -3 -17 13 -6 13 -9 27 -9 32 1 4 -8 7 -20 7 -19 0 -20 2 -8 10
21 14 33 8 48 -23z m-1488 9 c0 -11 -19 -15 -25 -6 -3 5 1 10 9 10 9 0 16 -2
16 -4z m-63 -43 c12 -3 27 -11 33 -18 15 -18 -65 5 -82 24 -11 12 -10 13 7 6
11 -4 30 -10 42 -12z m198 -3 c3 -5 1 -10 -4 -10 -6 0 -11 5 -11 10 0 6 2 10
4 10 3 0 8 -4 11 -10z m835 -30 c0 -5 -4 -10 -9 -10 -6 0 -13 5 -16 10 -3 6 1
10 9 10 9 0 16 -4 16 -10z m-891 -14 c19 -7 31 -15 25 -17 -5 -3 -31 3 -59 12
-34 12 -42 17 -25 17 14 0 41 -5 59 -12z m948 -2 c-3 -3 -12 -4 -19 -1 -8 3
-5 6 6 6 11 1 17 -2 13 -5z"/>
<path d="M2248 1523 c7 -3 16 -2 19 1 4 3 -2 6 -13 5 -11 0 -14 -3 -6 -6z"/>
<path d="M291 1074 c0 -11 3 -14 6 -6 3 7 2 16 -1 19 -3 4 -6 -2 -5 -13z"/>
<path d="M186 539 c3 -5 14 -9 25 -9 11 0 29 -5 40 -11 27 -14 110 -15 134 -1
16 9 6 11 -50 9 -38 -1 -89 3 -112 10 -24 6 -40 7 -37 2z"/>
<path d="M2097 379 c7 -7 15 -10 18 -7 3 3 -2 9 -12 12 -14 6 -15 5 -6 -5z"/>
<path d="M2223 83 c9 -2 23 -2 30 0 6 3 -1 5 -18 5 -16 0 -22 -2 -12 -5z"/>
<path d="M2268 53 c7 -3 16 -2 19 1 4 3 -2 6 -13 5 -11 0 -14 -3 -6 -6z"/>
<path d="M833 2003 c-7 -2 -13 -15 -13 -27 0 -12 -5 -27 -11 -33 -13 -13 26
-44 47 -36 8 3 17 -3 20 -12 5 -13 9 -14 15 -4 5 8 3 17 -4 22 -11 8 22 3 81
-10 18 -4 22 -1 22 20 0 31 -9 38 -41 30 l-24 -7 25 -7 c18 -5 10 -7 -25 -6
-57 2 -64 20 -10 25 41 4 48 24 8 22 -50 -4 -63 0 -63 15 0 15 -6 17 -27 8z"/>
<path d="M950 2004 c0 -13 18 -39 24 -34 2 3 -2 14 -10 24 -8 11 -14 16 -14
10z"/>
<path d="M1548 1993 c7 -3 16 -2 19 1 4 3 -2 6 -13 5 -11 0 -14 -3 -6 -6z"/>
<path d="M2018 1993 c7 -3 16 -2 19 1 4 3 -2 6 -13 5 -11 0 -14 -3 -6 -6z"/>
<path d="M80 1980 c-9 -6 -10 -10 -3 -10 6 0 15 5 18 10 8 12 4 12 -15 0z"/>
<path d="M580 1970 c0 -5 5 -10 11 -10 5 0 7 5 4 10 -3 6 -8 10 -11 10 -2 0
-4 -4 -4 -10z"/>
<path d="M1751 1971 c-9 -6 -7 -10 8 -14 12 -3 21 -1 21 3 0 14 -15 19 -29 11z"/>
<path d="M134 1958 c-2 -4 8 -5 23 -2 37 7 43 15 9 12 -15 -1 -30 -6 -32 -10z"/>
<path d="M888 1943 c7 -3 16 -2 19 1 4 3 -2 6 -13 5 -11 0 -14 -3 -6 -6z"/>
<path d="M660 1922 c0 -15 28 -23 36 -9 4 7 4 9 -1 5 -4 -4 -14 -3 -22 3 -8 7
-13 8 -13 1z"/>
<path d="M1140 1920 c0 -5 5 -10 10 -10 6 0 10 5 10 10 0 6 -4 10 -10 10 -5 0
-10 -4 -10 -10z"/>
<path d="M1010 1910 c0 -5 7 -10 15 -10 8 0 15 5 15 10 0 6 -7 10 -15 10 -8 0
-15 -4 -15 -10z"/>
<path d="M686 1884 c-23 -23 -20 -30 4 -9 11 10 20 20 20 22 0 7 -9 2 -24 -13z"/>
<path d="M790 1887 c0 -9 13 -11 41 -9 48 5 46 10 -4 16 -25 4 -37 1 -37 -7z"/>
<path d="M1900 1799 c0 -6 -7 -9 -15 -5 -14 5 -53 -26 -84 -67 -12 -15 -12
-17 2 -11 15 6 93 -33 132 -66 11 -10 34 -22 50 -27 21 -7 29 -16 27 -29 -2
-16 -1 -16 7 -4 9 12 11 12 17 -3 3 -9 11 -17 17 -17 7 0 7 4 -1 12 -7 7 -12
22 -12 35 0 28 -56 143 -70 143 -5 0 -7 6 -4 14 6 16 -6 25 -41 32 -15 3 -25
0 -25 -7z"/>
<path d="M1620 1790 c0 -5 -7 -10 -16 -10 -14 0 -14 -2 1 -16 9 -9 19 -14 22
-10 10 10 11 46 1 46 -4 0 -8 -4 -8 -10z"/>
<path d="M6 1708 c-3 -17 -6 -41 -6 -55 0 -21 3 -23 23 -17 30 9 29 6 21 52
-8 51 -29 62 -38 20z m31 -50 c-3 -8 -6 -5 -6 6 -1 11 2 17 5 13 3 -3 4 -12 1
-19z"/>
<path d="M1795 1665 c17 -14 37 -25 45 -25 8 0 -2 11 -22 25 -47 32 -62 32
-23 0z"/>
<path d="M1870 1660 c-8 -5 -10 -10 -5 -10 6 0 17 5 25 10 8 5 11 10 5 10 -5
0 -17 -5 -25 -10z"/>
<path d="M1877 1613 c-12 -11 -8 -23 8 -23 9 0 27 -7 41 -16 13 -9 27 -14 30
-11 3 3 -8 13 -25 23 -17 10 -31 22 -31 26 0 10 -14 10 -23 1z"/>
<path d="M1979 1593 c-13 -16 -12 -17 4 -4 9 7 17 15 17 17 0 8 -8 3 -21 -13z"/>
<path d="M1 1560 c0 -43 15 -106 22 -90 4 8 0 38 -7 65 -9 31 -14 40 -15 25z"/>
<path d="M1940 1288 c0 -27 6 -41 22 -52 34 -24 38 -20 23 18 -8 19 -12 42 -9
50 3 9 1 16 -5 16 -6 0 -11 -6 -11 -12 0 -9 -4 -8 -10 2 -7 11 -10 6 -10 -22z"/>
<path d="M1858 1283 c-17 -3 -28 -11 -28 -20 0 -11 7 -14 26 -10 16 3 28 0 31
-9 7 -20 33 2 33 27 0 19 -6 20 -62 12z"/>
<path d="M2010 1221 c0 -6 -12 -16 -27 -23 -17 -8 -32 -27 -40 -48 -10 -30
-12 -32 -18 -15 -4 11 -9 27 -12 35 -4 11 -7 12 -10 2 -3 -6 -9 -10 -13 -7 -5
3 -11 1 -15 -5 -3 -5 1 -10 9 -10 9 0 16 -5 16 -11 0 -6 -7 -9 -15 -5 -24 9
-18 -20 8 -37 22 -16 22 -16 -8 -12 l-30 4 30 -14 c20 -10 24 -14 12 -15 -11
0 -15 -4 -11 -11 5 -9 -1 -10 -22 -5 -23 6 -26 5 -17 -5 17 -17 110 -24 128
-9 10 8 15 9 15 1 0 -16 -44 -24 -106 -19 -30 3 -49 1 -42 -3 10 -7 10 -9 1
-9 -26 0 -12 -19 21 -30 34 -11 94 -9 128 5 35 14 101 231 75 247 -17 11 -57
10 -57 -1z m-47 -158 c-7 -2 -19 -2 -25 0 -7 3 -2 5 12 5 14 0 19 -2 13 -5z"/>
<path d="M1765 1100 c-3 -5 -1 -10 4 -10 6 0 11 5 11 10 0 6 -2 10 -4 10 -3 0
-8 -4 -11 -10z"/>
<path d="M2124 1061 c3 -5 17 -8 31 -8 14 0 28 3 31 8 3 5 -11 9 -31 9 -20 0
-34 -4 -31 -9z"/>
<path d="M2208 1063 c7 -3 16 -2 19 1 4 3 -2 6 -13 5 -11 0 -14 -3 -6 -6z"/>
<path d="M2238 1013 c7 -3 16 -2 19 1 4 3 -2 6 -13 5 -11 0 -14 -3 -6 -6z"/>
<path d="M656 709 c3 -6 0 -15 -7 -20 -7 -4 -11 -10 -9 -13 3 -2 13 2 24 9 18
13 15 35 -5 35 -6 0 -7 -5 -3 -11z"/>
<path d="M678 673 c-13 -16 -12 -20 8 -39 21 -21 34 -21 34 -2 0 4 -7 8 -16 8
-12 0 -15 7 -12 25 6 30 5 30 -14 8z"/>
<path d="M727 614 c-3 -3 -3 -13 0 -21 5 -12 7 -12 14 -1 15 23 4 40 -14 22z"/>
<path d="M785 609 c15 -23 87 -68 103 -62 14 4 15 3 2 -6 -15 -11 -11 -21 12
-25 7 -1 23 -7 35 -14 17 -10 22 -9 27 5 7 18 -9 33 -36 33 -9 0 -18 3 -20 8
-5 11 -88 54 -88 45 0 -4 -5 0 -11 10 -5 9 -15 17 -20 17 -6 0 -7 -5 -4 -11z"/>
<path d="M756 575 c4 -8 7 -15 9 -15 1 0 8 7 15 15 10 13 9 15 -8 15 -15 0
-20 -5 -16 -15z"/>
<path d="M997 488 c-6 -41 -2 -48 27 -48 18 0 25 7 30 32 7 33 -4 48 -35 48
-11 0 -18 -11 -22 -32z"/>
<path d="M867 504 c-11 -11 3 -24 18 -18 8 4 12 10 9 15 -6 11 -18 12 -27 3z"/>
<path d="M906 472 c-8 -13 28 -22 45 -11 9 6 10 9 2 9 -6 0 -18 3 -26 6 -8 3
-18 1 -21 -4z"/>
<path d="M1091 464 c0 -11 3 -14 6 -6 3 7 2 16 -1 19 -3 4 -6 -2 -5 -13z"/>
<path d="M955 420 c-3 -5 -1 -11 4 -11 14 -2 30 -6 34 -9 1 -1 13 -3 27 -5 14
-2 36 -6 50 -10 21 -5 22 -5 8 5 -10 6 -21 10 -24 10 -4 -1 -10 3 -13 8 -9 14
-78 24 -86 12z"/>
</g>
</svg>
